<?xml version="1.0"?>
<svg width="32" height="32" xmlns="http://www.w3.org/2000/svg" xmlns:svg="http://www.w3.org/2000/svg" enable-background="new 0 0 32 32">

 <g class="layer">
  <title>Layer 1</title>
  <circle cx="16" cy="16" fill="#ffffff" id="svg_1" r="16" transform="matrix(1, 0, 0, 1, 0, 0)"/>
  <path d="m16.5,26.14c-0.17,-0.99 -1.01,-2.31 -0.09,-3.16c0.65,-0.61 1.88,-0.6 2.61,-0.17c0.64,0.38 0.85,0.9 1.72,1.34c0.13,0.06 0.27,0.12 0.41,0.16c2.72,0.83 3.12,-3.6 2.87,-5.28c-0.28,-1.83 -1.46,-3.65 -3.56,-2.94c-1.16,0.39 -1.2,1.6 -1.75,2.49c-0.44,0.72 -1.28,0.98 -2.08,0.97c-0.94,0 -1.62,-0.38 -2.56,0.06c-0.93,0.43 -2.21,1.45 -2.77,3.94c-0.58,2.57 -1.26,4.9 -2.16,6.91c2.08,0.99 4.41,1.54 6.86,1.54c0.22,0 0.45,-0.01 0.67,-0.02c0.07,-0.7 0.11,-1.4 0.11,-2.1c0.02,-1.25 -0.06,-2.51 -0.28,-3.74z" fill="#fff" id="svg_2"/>
  <path d="m26.44,26.42c-0.69,-2.4 -0.25,-4.74 -0.56,-7.18c-0.19,-1.51 -0.39,-3.08 -1,-4.56c-0.67,-1.67 -1.56,-3.47 -4.17,-4.74c-0.83,-0.4 -1.76,-0.66 -2.69,-0.86c-1.67,-0.36 -3.14,-0.82 -4.68,-1.56c-1.42,-0.69 -2.76,-1.51 -4.08,-2.37c-0.36,-0.23 -2.46,-0.78 -4.02,0.43c2.99,0.59 5.77,2.82 6.49,3.31c0.19,0.13 0.44,0.27 0.63,0.45c0.12,0.11 0.23,0.24 0.28,0.38c0.1,0.28 -0.09,0.51 -0.47,0.51c-0.4,0.01 -0.77,-0.34 -1.02,-0.58c-0.48,-0.43 -0.96,-0.88 -1.45,-1.31c-0.8,-0.7 -1.92,-1.41 -3.31,-2.1l2.72,2.66c1.34,1.45 1.72,3.12 2.32,5.04c0.06,0.21 0.12,0.42 0.17,0.62c0.24,0.82 0.53,2.36 1.52,3.22c-1.43,0.62 -3.11,2.09 -3.84,5.31c-0.54,2.41 -1.15,4.55 -1.94,6.36c0.57,0.38 1.18,0.71 1.8,1.01c0.9,-2.01 1.58,-4.34 2.16,-6.91c0.56,-2.49 1.84,-3.51 2.77,-3.94c0.94,-0.44 1.62,-0.06 2.56,-0.06c0.8,0.01 1.64,-0.25 2.08,-0.97c0.55,-0.89 0.59,-2.1 1.75,-2.49c2.1,-0.71 3.28,1.11 3.56,2.94c0.25,1.68 -0.15,6.11 -2.87,5.28c-0.14,-0.04 -0.28,-0.1 -0.41,-0.16c-0.87,-0.44 -1.08,-0.96 -1.72,-1.34c-0.73,-0.43 -1.96,-0.44 -2.61,0.17c-0.92,0.85 -0.08,2.17 0.09,3.16c0.22,1.23 0.3,2.49 0.28,3.74c0,0.7 -0.04,1.4 -0.11,2.1c3.93,-0.16 7.49,-1.74 10.19,-4.23c-0.15,-0.44 -0.3,-0.88 -0.42,-1.33z" id="svg_3"/>
  <path d="m24.02,19.03c-0.28,-1.83 -1.46,-3.65 -3.56,-2.94c-1.16,0.39 -1.2,1.6 -1.75,2.49c-0.44,0.72 -1.28,0.98 -2.08,0.97c-0.94,0 -1.62,-0.38 -2.56,0.06c-0.43,0.19 -0.92,0.52 -1.39,1.04c0.04,0 0.08,0.02 0.12,0c2.05,-1.34 5.61,1.8 6.22,2.16c0.64,0.38 0.85,0.9 1.72,1.34c0.13,0.06 0.27,0.12 0.41,0.16c2.72,0.83 3.12,-3.6 2.87,-5.28z" fill="#b2b2b2" id="svg_4"/>
 </g>
</svg>